<?xml version="1.0" standalone="no"?>
<!DOCTYPE svg PUBLIC "-//W3C//DTD SVG 20010904//EN"
 "http://www.w3.org/TR/2001/REC-SVG-20010904/DTD/svg10.dtd">
<svg version="1.0" xmlns="http://www.w3.org/2000/svg"
 width="598.000000pt" height="601.000000pt" viewBox="0 0 598.000000 601.000000"
 preserveAspectRatio="xMidYMid meet">

<g transform="translate(0.000000,601.000000) scale(0.100000,-0.100000)"
fill="#000000" stroke="none">
<path d="M1925 5804 c-322 -58 -620 -252 -800 -523 -71 -107 -112 -192 -150
-312 -51 -163 -55 -213 -55 -734 l0 -482 -42 -13 c-142 -42 -257 -152 -310
-298 -20 -53 -22 -84 -28 -422 l-7 -365 -181 -1170 c-100 -643 -182 -1183
-182 -1199 0 -19 10 -40 27 -58 l27 -28 1537 0 c1449 0 1538 1 1558 18 12 9
26 35 31 57 5 22 10 279 10 570 l1 530 99 -195 c54 -108 106 -202 116 -210 14
-13 93 -16 462 -20 l445 -5 -2 -75 c-9 -305 205 -580 509 -656 90 -23 261 -15
350 15 138 47 271 150 347 268 150 234 133 552 -39 764 l-46 56 34 12 c63 23
65 35 62 382 l-3 311 -28 24 c-26 22 -36 24 -138 24 l-109 0 0 95 0 95 59 0
c49 0 65 4 90 26 42 35 44 98 5 135 l-26 24 -415 0 -415 0 -24 -28 c-34 -40
-32 -90 5 -128 26 -26 36 -29 90 -29 l61 0 0 -134 c0 -109 -3 -136 -16 -147
-8 -7 -24 -30 -35 -51 l-20 -38 -266 2 -267 3 -258 430 -258 430 0 295 c0 230
-3 309 -15 353 -41 156 -147 274 -296 328 l-57 21 -5 496 c-5 458 -7 505 -26
594 -97 444 -400 784 -822 921 -169 55 -409 72 -584 41z m413 -190 c319 -65
594 -282 732 -577 21 -45 48 -116 59 -157 19 -71 47 -258 39 -265 -2 -2 -34
11 -71 30 -37 19 -88 37 -113 41 l-45 6 -179 268 c-98 148 -189 275 -202 284
-12 9 -33 16 -45 16 -13 0 -274 -125 -581 -279 -476 -238 -568 -281 -635 -294
-45 -9 -103 -30 -134 -47 l-56 -32 6 94 c14 226 121 453 297 628 149 150 314
240 521 285 90 19 311 19 407 -1z m260 -744 l112 -170 -457 1 -458 0 335 169
c184 93 340 169 345 169 6 0 61 -76 123 -169z m190 -602 l-3 -242 -190 -33
c-104 -17 -197 -32 -205 -32 -9 -1 -31 31 -55 77 -36 68 -44 78 -80 90 -47 16
-228 12 -261 -6 -12 -6 -39 -45 -60 -87 -23 -44 -45 -75 -54 -74 -8 0 -100 15
-205 32 l-190 33 -3 242 -2 242 655 0 655 0 -2 -242z m-1498 -38 c0 -143 -4
-260 -8 -260 -24 0 -102 63 -130 105 -48 73 -56 196 -18 276 26 54 116 139
149 139 4 0 7 -117 7 -260z m1753 230 c90 -57 141 -181 118 -286 -7 -28 -25
-72 -41 -97 -29 -46 -101 -107 -127 -107 -10 0 -13 48 -13 260 0 143 4 260 8
260 4 0 29 -13 55 -30z m-833 -590 c63 -125 48 -122 338 -74 l244 41 -6 -64
c-7 -67 -44 -180 -78 -241 -51 -88 -142 -182 -233 -240 -126 -80 -325 -112
-479 -78 -189 43 -361 176 -445 347 -39 78 -70 190 -71 250 l0 25 244 -40
c288 -47 273 -51 336 74 39 77 42 80 75 80 33 0 36 -3 75 -80z m-952 -91 c33
-9 42 -17 42 -34 0 -46 42 -182 80 -259 73 -151 191 -279 328 -357 l52 -30 0
-140 0 -139 -515 0 -515 0 0 253 c0 287 6 326 66 395 50 59 108 90 189 101
105 15 117 32 123 169 l4 109 52 -28 c28 -15 70 -33 94 -40z m1912 -38 c0
-100 2 -112 23 -136 18 -21 35 -28 88 -34 77 -10 120 -30 172 -80 80 -76 82
-81 85 -393 l3 -278 -515 0 -516 0 0 139 0 139 53 30 c192 108 352 330 396
548 l18 89 62 22 c34 12 74 31 89 42 15 11 30 21 35 21 4 0 7 -49 7 -109z
m-1030 -726 c52 0 114 3 138 8 l42 7 0 -145 0 -145 -91 -182 -91 -183 -94 185
-93 185 0 142 -1 143 48 -8 c26 -4 90 -7 142 -7z m-813 -500 l153 -115 0 -126
c0 -75 5 -134 11 -147 7 -12 133 -182 280 -379 l269 -358 0 -500 0 -500 -465
0 -465 0 0 693 c0 445 -4 705 -10 729 -13 46 -43 68 -93 68 -27 0 -45 -7 -62
-25 l-25 -24 0 -721 0 -720 -275 0 -275 0 5 22 c2 13 79 511 170 1108 92 597
168 1091 170 1098 3 9 59 12 231 12 l227 0 154 -115z m593 -125 l120 -241 -2
-221 -3 -222 -182 244 -183 243 0 136 c0 162 -2 166 -109 246 l-75 55 157 0
157 0 120 -240z m860 237 c0 -2 -36 -30 -80 -62 -96 -71 -100 -80 -100 -253
l0 -122 -185 -247 -185 -246 0 221 0 222 122 245 123 245 152 0 c84 0 153 -1
153 -3z m1075 -444 c147 -247 276 -456 287 -465 18 -16 49 -18 318 -18 l297 0
5 -84 c3 -63 10 -96 30 -135 l25 -51 -62 -45 c-72 -51 -133 -117 -178 -192
l-32 -52 -427 -1 -428 0 -180 360 c-107 214 -187 363 -199 370 -36 19 -90 12
-116 -15 l-25 -24 0 -721 0 -720 -470 0 -470 0 0 498 0 499 280 373 280 373 0
134 0 133 153 115 152 115 246 0 246 0 268 -447z m1375 -18 l0 -95 -95 0 -95
0 0 95 0 95 95 0 95 0 0 -95z m280 -470 l0 -185 -251 0 -251 0 -29 29 -29 29
0 130 c0 123 1 130 25 156 l24 26 256 0 255 0 0 -185z m-237 -395 c79 -24 175
-87 222 -144 19 -23 49 -73 67 -112 28 -60 33 -82 36 -166 4 -78 0 -110 -17
-166 -42 -138 -165 -261 -303 -303 -56 -17 -88 -21 -166 -17 -84 3 -106 8
-166 36 -91 43 -145 88 -195 163 -176 264 -54 613 247 710 78 25 192 24 275
-1z"/>
<path d="M4690 3751 c-46 -14 -105 -49 -131 -78 -125 -134 -93 -346 68 -440
65 -38 169 -44 241 -13 63 27 132 99 157 163 23 61 17 164 -13 223 -57 111
-208 179 -322 145z m135 -206 c19 -18 25 -35 25 -65 0 -56 -34 -90 -90 -90
-55 0 -90 34 -90 88 0 82 98 125 155 67z"/>
<path d="M5449 3731 c-59 -60 -23 -156 59 -156 58 0 92 34 92 91 0 35 -5 47
-31 68 -41 35 -83 34 -120 -3z"/>
<path d="M5422 3182 c-192 -69 -253 -303 -118 -450 57 -63 123 -92 209 -92
115 0 195 50 246 152 71 141 17 305 -123 373 -72 35 -146 41 -214 17z m147
-198 c26 -21 31 -33 31 -68 0 -57 -34 -91 -92 -91 -82 0 -118 96 -59 156 37
37 79 38 120 3z"/>
<path d="M4696 2794 c-59 -59 -20 -154 64 -154 56 0 90 34 90 90 0 84 -95 123
-154 64z"/>
</g>
</svg>
