<?xml version="1.0" standalone="no"?>
<!DOCTYPE svg PUBLIC "-//W3C//DTD SVG 20010904//EN"
 "http://www.w3.org/TR/2001/REC-SVG-20010904/DTD/svg10.dtd">
<svg version="1.0" xmlns="http://www.w3.org/2000/svg"
 width="573.000000pt" height="590.000000pt" viewBox="0 0 573.000000 590.000000"
 preserveAspectRatio="xMidYMid meet">

<g transform="translate(0.000000,590.000000) scale(0.100000,-0.100000)"
fill="#000000" stroke="none">
<path d="M239 5816 c-57 -20 -106 -64 -134 -119 l-25 -51 0 -2150 0 -2151 24
-50 c25 -54 71 -100 123 -122 26 -10 181 -13 813 -13 l782 0 -7 33 c-19 93
-68 274 -93 343 l-29 79 -592 3 -592 2 6 508 c9 797 25 2617 25 2940 l0 292
2340 0 2340 0 -2 -1867 -3 -1868 -602 -3 -603 -2 -16 -38 c-39 -93 -114 -359
-114 -407 0 -13 95 -15 810 -15 658 0 817 3 843 13 52 22 98 68 123 122 l24
50 0 2151 0 2150 -25 51 c-28 55 -77 99 -134 119 -53 19 -5229 19 -5282 0z"/>
<path d="M736 5158 c-13 -18 -16 -56 -16 -204 0 -163 2 -183 18 -197 26 -24
68 -21 86 5 13 18 16 52 16 160 l0 137 166 3 c150 3 167 5 180 22 18 26 18 61
-2 80 -13 14 -48 16 -224 16 -204 0 -209 0 -224 -22z"/>
<path d="M1688 4716 c-94 -25 -162 -102 -178 -202 -6 -35 -10 -458 -10 -1046
l0 -988 -93 0 c-121 0 -133 -8 -130 -85 4 -115 75 -261 164 -339 46 -40 132
-86 161 -86 27 0 81 -72 141 -188 121 -234 207 -570 238 -929 13 -165 7 -517
-11 -640 -12 -77 -12 -84 5 -103 26 -29 75 -23 92 10 6 14 14 33 17 43 5 15
20 17 136 17 l130 0 0 -28 c0 -80 111 -82 122 -2 l3 25 163 3 162 2 0 -35 c0
-38 28 -75 58 -75 36 0 62 29 62 71 l0 39 159 0 158 0 6 -36 c16 -96 116 -98
120 -2 l2 33 124 3 c132 3 141 0 141 -45 0 -28 33 -63 59 -63 10 0 29 8 41 18
l23 19 -19 129 c-28 193 -26 622 5 824 57 377 153 647 296 838 38 50 54 64 88
73 69 18 136 60 190 119 103 113 169 318 117 370 -17 17 -33 20 -115 20 l-95
0 -2 1033 -3 1032 -22 40 c-28 52 -78 99 -128 122 -38 17 -106 18 -1185 20
-900 1 -1155 -1 -1192 -11z m2331 -124 c19 -9 44 -30 55 -45 21 -28 21 -35 24
-1048 l2 -1019 -1237 2 -1238 3 -3 970 c-2 534 0 994 3 1023 8 61 41 107 88
121 19 5 506 10 1152 10 1048 1 1122 0 1154 -17z m-1820 -2686 c18 -48 61
-204 61 -220 0 -3 -75 -6 -167 -6 l-168 0 -39 86 c-22 48 -54 111 -72 140
l-33 54 199 0 199 0 20 -54z m601 -86 l0 -140 -207 2 -207 3 -8 35 c-13 52
-55 202 -63 223 -7 16 9 17 239 17 l246 0 0 -140z m580 58 c-15 -46 -33 -109
-40 -140 l-13 -58 -204 0 -203 0 0 140 0 140 244 0 243 0 -27 -82z m512 24
c-20 -32 -55 -95 -77 -140 l-39 -82 -164 0 -164 0 6 28 c11 43 53 173 71 215
l15 37 195 0 195 0 -38 -58z m-1602 -346 c0 -3 9 -65 19 -138 11 -73 21 -151
23 -173 l3 -40 -138 -3 c-105 -2 -138 0 -141 10 -2 7 -19 78 -39 158 -20 80
-39 155 -43 168 l-6 22 161 0 c88 0 161 -2 161 -4z m510 -176 l0 -180 -170 0
-169 0 -5 33 c-3 17 -12 88 -21 157 -9 69 -19 135 -22 148 l-5 22 196 0 196 0
0 -180z m497 158 c-3 -13 -13 -79 -22 -148 -9 -69 -18 -140 -21 -157 l-5 -33
-164 0 -165 0 0 180 0 180 191 0 191 0 -5 -22z m429 0 c-4 -13 -23 -88 -43
-168 -20 -80 -37 -151 -39 -157 -4 -15 -259 -19 -268 -5 -5 8 15 175 35 288
l11 64 155 0 155 0 -6 -22z m-1372 -565 c3 -60 8 -138 11 -175 l5 -68 -128 0
-129 0 -12 133 c-7 72 -15 151 -18 175 l-6 42 136 0 135 0 6 -107z m446 -68
l0 -175 -154 0 -154 0 -6 73 c-3 39 -8 118 -11 175 l-6 102 166 0 165 0 0
-175z m434 23 c-8 -222 13 -198 -164 -198 l-150 0 0 175 0 175 160 0 159 0 -5
-152z m386 140 c0 -12 -11 -130 -26 -285 l-5 -53 -125 0 -125 0 6 103 c3 56 8
135 11 175 l6 72 129 0 c96 0 129 -3 129 -12z m-1250 -545 c0 -49 -3 -118 -7
-155 l-6 -68 -130 0 -130 0 7 46 c3 26 6 96 6 155 l0 109 130 0 130 0 0 -87z
m430 -68 l0 -155 -161 0 -162 0 7 61 c3 34 6 104 6 155 l0 94 155 0 155 0 0
-155z m423 58 c4 -54 7 -124 7 -155 l0 -58 -155 0 -155 0 0 155 0 155 148 0
149 0 6 -97z m368 25 c0 -40 4 -110 7 -155 l7 -83 -126 0 -126 0 -6 107 c-4
58 -7 128 -7 155 l0 48 125 0 125 0 1 -72z"/>
<path d="M2793 3814 c16 -170 90 -348 192 -462 l41 -45 176 194 177 194 -32
27 c-47 42 -182 105 -272 128 -44 12 -127 24 -184 27 l-104 6 6 -69z"/>
<path d="M2583 3831 c-95 -33 -198 -91 -262 -148 l-44 -39 289 -261 289 -261
23 21 c13 12 33 35 44 50 l20 29 -35 36 c-115 121 -201 313 -230 514 l-12 87
-82 -28z"/>
<path d="M3324 3458 c-76 -84 -153 -170 -173 -190 -34 -36 -34 -38 -17 -57 28
-31 183 -107 266 -131 47 -13 118 -24 189 -27 l114 -6 -6 74 c-8 96 -29 177
-72 266 -48 103 -132 223 -156 223 -4 0 -69 -69 -145 -152z"/>
<path d="M2159 3504 c-62 -91 -129 -265 -129 -337 0 -24 1 -24 88 -26 184 -2
348 -54 505 -158 l70 -46 38 44 c21 24 39 47 39 50 0 7 -566 519 -574 519 -3
0 -19 -21 -37 -46z"/>
<path d="M2986 3084 c-21 -25 -34 -49 -30 -54 5 -4 114 -103 243 -219 l234
-211 77 0 77 0 36 78 c34 73 59 150 71 218 l5 31 -122 6 c-181 7 -351 64 -490
163 -26 19 -51 34 -55 34 -4 0 -25 -21 -46 -46z"/>
<path d="M2023 2952 c8 -92 32 -181 74 -274 l36 -78 127 0 128 0 110 123 111
122 -27 22 c-50 41 -206 112 -292 133 -54 12 -120 20 -179 20 l-94 0 6 -68z"/>
<path d="M2822 2904 l-40 -47 48 -59 c27 -32 68 -89 91 -128 l41 -70 146 0
c124 0 144 2 132 14 -29 26 -336 301 -357 319 -20 18 -21 17 -61 -29z"/>
<path d="M2621 2680 l-73 -80 137 0 137 0 -22 36 c-26 45 -90 124 -100 124 -4
0 -40 -36 -79 -80z"/>
<path d="M737 4526 c-13 -14 -27 -194 -27 -363 0 -70 20 -103 63 -103 49 0 54
20 62 233 6 173 5 201 -9 223 -19 27 -66 33 -89 10z"/>
</g>
</svg>
